<?xml version="1.0" encoding="UTF-8" standalone="no"?><!DOCTYPE svg PUBLIC "-//W3C//DTD SVG 1.1//EN" "http://www.w3.org/Graphics/SVG/1.1/DTD/svg11.dtd"><svg width="100%" height="100%" viewBox="0 0 105 183" version="1.1" xmlns="http://www.w3.org/2000/svg" xmlns:xlink="http://www.w3.org/1999/xlink" xml:space="preserve" xmlns:serif="http://www.serif.com/" style="fill-rule:evenodd;clip-rule:evenodd;stroke-linejoin:round;stroke-miterlimit:2;"><g><g><g><path d="M44.291,66.478c0,0 -0.16,0.164 -0.467,0.43c-0.153,0.13 -0.343,0.291 -0.566,0.48c-0.215,0.202 -0.479,0.397 -0.817,0.59c-0.328,0.21 -0.708,0.416 -1.137,0.642c-0.415,0.206 -0.877,0.383 -1.385,0.591c-0.508,0.208 -1.059,0.322 -1.658,0.496c-0.598,0.159 -1.227,0.218 -1.908,0.33c-1.335,0.122 -2.831,0.138 -4.351,-0.083c-1.542,-0.184 -3.094,-0.598 -4.625,-1.141c-3.069,-1.093 -5.909,-2.817 -8.385,-4.691c-2.47,-1.896 -4.601,-3.94 -6.41,-5.931c-0.906,-0.99 -1.745,-1.972 -2.514,-2.913c-0.771,-0.952 -1.486,-1.843 -2.15,-2.701c-0.674,-0.872 -1.292,-1.671 -1.84,-2.38c-0.586,-0.743 -1.097,-1.39 -1.517,-1.922c-0.439,-0.555 -0.797,-1.02 -1.055,-1.323c-0.254,-0.313 -0.39,-0.505 -0.39,-0.505c0,0 0.213,-0.073 0.611,-0.163c0.392,-0.073 1.005,-0.248 1.749,-0.292c0.763,-0.085 1.669,-0.087 2.719,-0.024c0.518,0.038 1.059,0.119 1.643,0.193c0.566,0.094 1.159,0.224 1.776,0.361c1.21,0.306 2.504,0.715 3.787,1.24c1.3,0.514 2.584,1.149 3.858,1.848c2.545,1.399 4.955,3.102 7.159,4.784c1.099,0.837 2.152,1.693 3.155,2.498c0.977,0.794 1.938,1.577 2.867,2.334c1.823,1.484 3.498,2.781 5.158,3.862c0.827,0.525 1.645,1.004 2.423,1.42c0.389,0.203 0.766,0.376 1.127,0.577c0.359,0.17 0.689,0.326 0.988,0.467c0.612,0.308 1.221,0.507 1.576,0.666c0.376,0.154 0.579,0.26 0.579,0.26Z" style="fill:#68bca2;fill-rule:nonzero;"/></g><g><path d="M43.178,56.463c0,0 0.145,-0.163 0.426,-0.429c0.284,-0.253 0.69,-0.67 1.227,-1.109c0.266,-0.233 0.566,-0.466 0.892,-0.724c0.295,-0.265 0.614,-0.551 0.955,-0.857c0.663,-0.61 1.384,-1.157 2.155,-1.895c0.779,-0.685 1.611,-1.375 2.414,-2.16c0.846,-0.72 1.632,-1.56 2.477,-2.33c0.421,-0.388 0.794,-0.837 1.207,-1.24l0.621,-0.603l0.574,-0.653c0.376,-0.441 0.815,-0.823 1.173,-1.28c0.362,-0.453 0.747,-0.885 1.135,-1.315c0.693,-0.926 1.473,-1.787 2.12,-2.743c0.732,-0.898 1.314,-1.89 2.012,-2.805c0.575,-0.979 1.278,-1.894 1.815,-2.858c0.301,-0.479 0.593,-0.945 0.876,-1.395c0.27,-0.466 0.516,-0.928 0.787,-1.371c0.573,-0.88 0.996,-1.746 1.457,-2.521c0.236,-0.394 0.457,-0.762 0.661,-1.103c0.19,-0.348 0.358,-0.673 0.535,-0.969c0.327,-0.593 0.658,-1.07 0.852,-1.4c0.207,-0.33 0.339,-0.509 0.339,-0.509c0,0 0.119,0.178 0.3,0.518c0.169,0.339 0.462,0.844 0.742,1.501c0.153,0.33 0.295,0.696 0.457,1.102c0.151,0.405 0.25,0.844 0.389,1.322c0.246,0.954 0.523,2.053 0.604,3.264c0.06,0.608 0.086,1.241 0.129,1.909c0.011,0.662 -0.063,1.337 -0.098,2.048c-0.052,1.427 -0.419,2.884 -0.783,4.414c-0.498,1.479 -1.006,3.051 -1.842,4.497c-0.74,1.5 -1.761,2.872 -2.798,4.218c-0.572,0.629 -1.147,1.257 -1.741,1.859c-0.576,0.621 -1.266,1.115 -1.9,1.651l-0.975,0.768c-0.346,0.221 -0.691,0.44 -1.034,0.659c-0.699,0.413 -1.361,0.859 -2.072,1.189c-1.423,0.657 -2.794,1.261 -4.178,1.586c-0.69,0.164 -1.329,0.386 -1.989,0.474c-0.66,0.086 -1.284,0.185 -1.891,0.24c-1.184,0.151 -2.376,0.095 -3.361,0.047c-0.498,-0.043 -0.961,-0.047 -1.374,-0.128c-0.407,-0.084 -0.781,-0.155 -1.123,-0.243c-0.679,-0.148 -1.229,-0.337 -1.597,-0.434c-0.373,-0.113 -0.575,-0.192 -0.575,-0.192Z" style="fill:#68bca2;fill-rule:nonzero;"/></g><g><path d="M52.081,124.343c0,0 0.018,-0.142 0.073,-0.383c0.061,-0.232 0.127,-0.602 0.258,-1.015c0.257,-0.842 0.641,-1.969 1.322,-3.16c0.332,-0.595 0.729,-1.222 1.159,-1.841c0.405,-0.597 0.841,-1.205 1.326,-1.785c0.506,-0.58 0.925,-1.155 1.448,-1.689c0.25,-0.27 0.521,-0.529 0.775,-0.789c0.237,-0.271 0.489,-0.527 0.74,-0.784c0.5,-0.513 1.087,-0.949 1.572,-1.46c0.51,-0.49 1.06,-0.939 1.63,-1.358c0.548,-0.441 1.078,-0.895 1.634,-1.293c0.551,-0.406 1.143,-0.753 1.673,-1.11c1.036,-0.733 2.064,-1.3 2.856,-1.68c0.387,-0.194 0.745,-0.325 0.967,-0.427c0.231,-0.098 0.371,-0.143 0.371,-0.143c0,0 0.04,0.135 0.085,0.374c0.036,0.235 0.12,0.599 0.158,1.033c0.094,0.877 0.127,2.107 -0.033,3.53c-0.097,0.702 -0.307,1.428 -0.538,2.197c-0.258,0.754 -0.513,1.572 -0.91,2.346c-0.421,0.761 -0.895,1.531 -1.424,2.28c-0.503,0.775 -1.172,1.414 -1.819,2.075c-0.334,0.32 -0.667,0.642 -1.013,0.944c-0.346,0.296 -0.715,0.543 -1.077,0.803c-0.726,0.493 -1.476,1.004 -2.21,1.34c-0.736,0.36 -1.479,0.661 -2.192,0.926c-0.695,0.235 -1.367,0.41 -2.018,0.558c-1.302,0.273 -2.499,0.461 -3.375,0.504c-0.433,0.034 -0.809,0.015 -1.049,0.023c-0.247,-0.002 -0.389,-0.016 -0.389,-0.016Z" style="fill:#68bca2;fill-rule:nonzero;"/></g><g><path d="M42.065,155.502c0,0 -0.128,0.143 -0.37,0.367c-0.242,0.21 -0.595,0.569 -1.049,0.924c-0.227,0.192 -0.478,0.377 -0.752,0.583c-0.304,0.192 -0.644,0.354 -1.019,0.548c-0.751,0.372 -1.663,0.741 -2.603,0.982c-0.48,0.137 -0.986,0.241 -1.518,0.353c-0.525,0.079 -1.073,0.133 -1.641,0.173c-0.573,0.053 -1.155,0.062 -1.739,0.015c-0.588,-0.031 -1.199,-0.074 -1.804,-0.16c-1.19,-0.205 -2.438,-0.471 -3.6,-0.917c-1.203,-0.401 -2.308,-0.967 -3.404,-1.56c-1.053,-0.633 -2.078,-1.315 -2.978,-2.074c-0.938,-0.737 -1.721,-1.569 -2.477,-2.39c-0.712,-0.84 -1.38,-1.688 -1.915,-2.549c-0.559,-0.85 -1.009,-1.72 -1.396,-2.535c-0.773,-1.645 -1.223,-3.18 -1.476,-4.325c-0.135,-0.563 -0.188,-1.064 -0.246,-1.381c-0.049,-0.326 -0.06,-0.519 -0.06,-0.519c0,0 0.192,-0.016 0.523,-0.011c0.321,0.016 0.825,-0.001 1.399,0.056c1.167,0.089 2.738,0.325 4.434,0.756c0.838,0.231 1.734,0.475 2.616,0.781c0.885,0.32 1.781,0.638 2.658,1.036c0.882,0.354 1.747,0.8 2.589,1.209c0.838,0.448 1.659,0.871 2.449,1.346c0.792,0.43 1.549,0.948 2.291,1.387c0.737,0.495 1.453,0.928 2.145,1.445c0.348,0.238 0.695,0.455 1.033,0.71c0.17,0.121 0.339,0.248 0.506,0.381c0.17,0.111 0.339,0.223 0.506,0.343c0.335,0.234 0.666,0.477 0.991,0.739c0.327,0.241 0.657,0.439 0.975,0.683c0.653,0.484 1.251,0.929 1.781,1.322c0.291,0.222 0.563,0.43 0.814,0.622c0.292,0.18 0.561,0.339 0.804,0.509c0.485,0.311 0.871,0.636 1.131,0.821c0.262,0.2 0.402,0.33 0.402,0.33Z" style="fill:#68bca2;fill-rule:nonzero;"/></g><g><path d="M69.886,134.359c0,0 0.169,-0.137 0.486,-0.349c0.317,-0.197 0.783,-0.539 1.375,-0.871c0.296,-0.18 0.624,-0.352 0.981,-0.544c0.175,-0.101 0.372,-0.19 0.549,-0.295c0.162,-0.118 0.33,-0.24 0.503,-0.366c0.338,-0.258 0.685,-0.48 1.031,-0.736c0.348,-0.268 0.694,-0.419 1.055,-0.764c0.358,-0.307 0.728,-0.575 1.09,-0.867c0.178,-0.154 0.374,-0.264 0.546,-0.425c0.168,-0.162 0.337,-0.327 0.51,-0.495c0.337,-0.333 0.692,-0.607 1.027,-0.936c0.32,-0.365 0.648,-0.706 0.983,-1.031c0.174,-0.145 0.332,-0.341 0.495,-0.536l0.496,-0.563l0.514,-0.54l0.519,-0.621c0.706,-0.763 1.455,-1.694 2.256,-2.56c0.814,-0.944 1.671,-1.854 2.607,-2.824c0.454,-0.461 0.94,-0.934 1.446,-1.405c0.51,-0.465 0.986,-0.909 1.529,-1.348c1.076,-0.878 2.137,-1.683 3.289,-2.372c0.57,-0.343 1.091,-0.681 1.675,-0.954c0.585,-0.269 1.133,-0.536 1.677,-0.76c1.058,-0.477 2.168,-0.736 3.1,-0.96c0.929,-0.232 1.793,-0.309 2.513,-0.324c0.706,-0.037 1.283,0.015 1.655,0.022c0.379,0.02 0.588,0.054 0.588,0.054c0,0 -0.081,0.21 -0.244,0.56c-0.171,0.338 -0.389,0.872 -0.696,1.451c-0.145,0.302 -0.319,0.607 -0.497,0.942c-0.165,0.345 -0.342,0.719 -0.532,1.117c-0.367,0.795 -0.826,1.556 -1.233,2.492c-0.434,0.867 -0.905,1.807 -1.402,2.801c-0.508,0.943 -1.048,2.002 -1.653,3.026c-0.3,0.512 -0.63,1.076 -0.964,1.608c-0.333,0.53 -0.693,1.074 -1.087,1.643c-0.749,1.096 -1.659,2.24 -2.611,3.348c-1.041,1.12 -2.101,2.21 -3.399,3.21l-0.939,0.735c-0.35,0.224 -0.698,0.446 -1.044,0.667c-0.722,0.411 -1.355,0.865 -2.133,1.173c-0.755,0.325 -1.499,0.624 -2.23,0.884c-0.744,0.238 -1.521,0.37 -2.245,0.514c-0.726,0.148 -1.43,0.248 -2.13,0.217c-0.694,-0.009 -1.347,-0.002 -1.97,-0.045c-1.256,-0.093 -2.446,-0.434 -3.393,-0.697c-0.236,-0.075 -0.465,-0.148 -0.686,-0.218c-0.206,-0.078 -0.383,-0.188 -0.564,-0.283c-0.357,-0.194 -0.686,-0.367 -0.982,-0.549c-0.593,-0.334 -1.059,-0.678 -1.376,-0.876c-0.316,-0.213 -0.485,-0.35 -0.485,-0.35Z" style="fill:#68bca2;fill-rule:nonzero;"/></g><g><path d="M59.87,161.066c0,0 0.168,-0.07 0.472,-0.168c0.302,-0.086 0.755,-0.254 1.311,-0.385c0.281,-0.078 0.586,-0.141 0.919,-0.215c0.336,-0.081 0.638,-0.212 0.975,-0.327c0.671,-0.255 1.308,-0.408 2.075,-0.75c0.372,-0.154 0.749,-0.276 1.127,-0.42c0.379,-0.146 0.758,-0.339 1.139,-0.507c0.768,-0.274 1.522,-0.75 2.296,-1.08c0.38,-0.207 0.766,-0.417 1.157,-0.63c0.394,-0.175 0.781,-0.417 1.176,-0.647c0.797,-0.406 1.59,-0.936 2.419,-1.379c0.812,-0.53 1.664,-0.975 2.502,-1.52c0.854,-0.487 1.703,-1.036 2.574,-1.51c0.85,-0.524 1.738,-0.966 2.574,-1.443c0.848,-0.459 1.692,-0.87 2.485,-1.266c1.605,-0.756 3.069,-1.35 4.16,-1.709c0.535,-0.191 1.007,-0.3 1.308,-0.393c0.309,-0.085 0.489,-0.118 0.489,-0.118c0,0 -0.01,0.182 -0.057,0.499c-0.056,0.309 -0.107,0.791 -0.237,1.351c-0.249,1.133 -0.688,2.686 -1.481,4.396c-0.383,0.861 -0.872,1.753 -1.435,2.67c-0.562,0.911 -1.246,1.833 -1.992,2.747c-0.792,0.89 -1.619,1.803 -2.613,2.616c-0.941,0.849 -2.062,1.583 -3.176,2.296c-1.189,0.647 -2.381,1.272 -3.69,1.695c-1.251,0.494 -2.632,0.723 -3.911,0.925c-1.332,0.095 -2.594,0.164 -3.804,-0.027c-0.601,-0.098 -1.173,-0.129 -1.721,-0.287c-0.548,-0.167 -1.067,-0.311 -1.555,-0.488c-0.96,-0.296 -1.871,-0.831 -2.585,-1.251c-0.352,-0.232 -0.707,-0.41 -0.955,-0.647c-0.251,-0.232 -0.482,-0.44 -0.686,-0.649c-0.413,-0.395 -0.721,-0.768 -0.938,-0.995c-0.213,-0.239 -0.322,-0.384 -0.322,-0.384Z" style="fill:#68bca2;fill-rule:nonzero;"/></g><g><path d="M46.517,83.171c0,0 -0.08,0.131 -0.238,0.342c-0.161,0.199 -0.387,0.533 -0.692,0.875c-0.288,0.365 -0.682,0.745 -1.218,1.139c-0.526,0.404 -1.161,0.813 -1.838,1.152c-0.344,0.182 -0.71,0.342 -1.095,0.511c-0.384,0.152 -0.788,0.264 -1.209,0.402c-0.844,0.285 -1.744,0.39 -2.694,0.512c-0.938,0.044 -1.93,0.087 -2.908,-0.056c-0.99,-0.096 -1.971,-0.33 -2.938,-0.611c-0.95,-0.331 -1.898,-0.678 -2.762,-1.177c-0.88,-0.456 -1.683,-1.034 -2.418,-1.631c-0.725,-0.617 -1.379,-1.27 -1.924,-1.963c-0.541,-0.703 -1.012,-1.38 -1.358,-2.089c-0.171,-0.356 -0.34,-0.681 -0.475,-1.01c-0.122,-0.346 -0.24,-0.663 -0.327,-0.978c-0.183,-0.621 -0.305,-1.168 -0.344,-1.662c-0.06,-0.474 -0.046,-0.88 -0.057,-1.135c-0.001,-0.263 0.015,-0.413 0.015,-0.413c0,0 0.146,0.013 0.422,0.038c0.254,0.039 0.656,0.064 1.091,0.138c0.426,0.062 0.942,0.137 1.535,0.224c0.553,0.097 1.159,0.192 1.794,0.287c0.594,0.107 1.239,0.224 1.92,0.347c0.654,0.119 1.316,0.253 1.971,0.406c0.664,0.141 1.314,0.315 1.975,0.484c0.643,0.206 1.314,0.355 1.954,0.583c0.654,0.19 1.291,0.438 1.936,0.651c0.636,0.258 1.277,0.454 1.9,0.75c0.628,0.22 1.249,0.545 1.857,0.795c0.632,0.294 1.229,0.572 1.78,0.829c0.585,0.297 1.122,0.569 1.598,0.811c0.249,0.139 0.488,0.252 0.721,0.389c0.25,0.115 0.479,0.221 0.686,0.317c0.417,0.191 0.759,0.406 0.986,0.523c0.227,0.132 0.354,0.22 0.354,0.22Z" style="fill:#68bca2;fill-rule:nonzero;"/></g><g><path d="M37.614,142.149c0,0 -0.003,-0.099 -0.009,-0.282c0.008,-0.168 -0.009,-0.448 0.027,-0.736c0.028,-0.297 0.051,-0.671 0.122,-1.048c0.061,-0.38 0.188,-0.798 0.197,-1.193c0.04,-0.395 0.089,-0.782 0.158,-1.143c0.083,-0.332 0.131,-0.77 0.235,-1.13c0.087,-0.377 0.256,-0.703 0.348,-1.065c0.114,-0.35 0.261,-0.677 0.446,-0.985c0.135,-0.334 0.305,-0.649 0.514,-0.951c0.233,-0.291 0.395,-0.621 0.641,-0.917c0.225,-0.306 0.544,-0.583 0.767,-0.896c0.254,-0.302 0.535,-0.595 0.825,-0.876c0.312,-0.277 0.565,-0.558 0.832,-0.812c0.258,-0.254 0.543,-0.483 0.766,-0.68c0.21,-0.196 0.445,-0.356 0.576,-0.468c0.152,-0.112 0.233,-0.172 0.233,-0.172c0,0 0.084,0.06 0.215,0.176c0.119,0.116 0.338,0.289 0.525,0.517c0.409,0.456 0.987,1.138 1.332,2.013c0.174,0.436 0.329,0.922 0.449,1.443c0.135,0.521 0.144,1.072 0.136,1.646c-0.027,0.569 -0.037,1.174 -0.228,1.744c-0.163,0.577 -0.372,1.154 -0.616,1.714c-0.302,0.53 -0.642,1.042 -1.007,1.519c-0.343,0.493 -0.819,0.865 -1.261,1.226c-0.46,0.353 -0.89,0.662 -1.42,0.9c-0.51,0.239 -1.008,0.42 -1.472,0.549c-0.475,0.152 -0.879,0.14 -1.271,0.14c-0.383,0.003 -0.756,-0.042 -1.054,-0.067c-0.29,-0.016 -0.563,-0.083 -0.729,-0.104c-0.181,-0.041 -0.277,-0.062 -0.277,-0.062Z" style="fill:#68bca2;fill-rule:nonzero;"/></g></g><g><g><g><path d="M37.726,21.966c3.426,53.089 21.616,105.674 8.938,158.863c-0.299,1.256 1.632,1.789 1.932,0.533c12.731,-53.413 -5.427,-106.096 -8.867,-159.396c-0.083,-1.282 -2.087,-1.29 -2.003,-0Z" style="fill:#1e3933;fill-rule:nonzero;"/></g></g><g><g><path d="M20.058,118.173c12.838,17.629 27.426,40.238 26.57,62.923c-0.049,1.292 1.955,1.287 2.003,0c0.869,-23.043 -13.819,-46.05 -26.844,-63.935c-0.752,-1.032 -2.491,-0.034 -1.729,1.012Z" style="fill:#1e3933;fill-rule:nonzero;"/></g></g><g><g><path d="M80.048,84.018c-5.558,34.388 -12.962,67.552 -33.283,96.573c-0.743,1.061 0.995,2.061 1.729,1.012c20.416,-29.156 27.899,-62.486 33.485,-97.052c0.205,-1.264 -1.726,-1.806 -1.931,-0.533Z" style="fill:#1e3933;fill-rule:nonzero;"/></g></g><g><g><path d="M44.025,65.512c-8.057,1.297 -14.84,-2.604 -21.041,-7.292c-1.031,-0.78 -2.027,0.961 -1.011,1.729c6.724,5.083 13.95,8.884 22.584,7.494c1.273,-0.204 0.731,-2.134 -0.532,-1.931Z" style="fill:#1e3933;fill-rule:nonzero;"/></g></g><g><g><path d="M43.444,57.429c8.635,-1.865 16.199,-6.139 21.512,-13.287c0.771,-1.038 -0.968,-2.035 -1.73,-1.011c-4.995,6.72 -12.229,10.62 -20.314,12.366c-1.263,0.273 -0.727,2.204 0.532,1.932Z" style="fill:#1e3933;fill-rule:nonzero;"/></g></g><g><g><path d="M52.789,125.051c3.547,-2.899 7.379,-5.436 10.655,-8.657c0.922,-0.906 -0.495,-2.322 -1.416,-1.416c-3.275,3.22 -7.109,5.758 -10.655,8.657c-1.001,0.819 0.425,2.227 1.416,1.416Z" style="fill:#1e3933;fill-rule:nonzero;"/></g></g><g><g><path d="M42.065,154.5c-6.295,0.418 -11.98,-1.437 -17.32,-4.689c-1.106,-0.673 -2.112,1.06 -1.011,1.73c5.618,3.421 11.706,5.4 18.331,4.962c1.282,-0.085 1.291,-2.088 0,-2.003Z" style="fill:#1e3933;fill-rule:nonzero;"/></g></g><g><g><path d="M69.886,135.361c10.869,0.331 17.628,-6.293 24.22,-14.115c0.827,-0.98 -0.582,-2.405 -1.416,-1.416c-6.202,7.36 -12.468,13.843 -22.804,13.527c-1.293,-0.039 -1.289,1.964 0,2.004Z" style="fill:#1e3933;fill-rule:nonzero;"/></g></g><g><g><path d="M59.604,162.032c7.099,2.122 13.937,0.612 20.076,-3.37c1.079,-0.7 0.076,-2.436 -1.011,-1.73c-5.711,3.705 -11.906,5.15 -18.533,3.169c-1.241,-0.372 -1.766,1.562 -0.532,1.931Z" style="fill:#1e3933;fill-rule:nonzero;"/></g></g><g><g><path d="M46.25,82.205c-4.08,0.93 -8.095,0.774 -12.13,-0.303c-1.249,-0.333 -1.779,1.599 -0.532,1.932c4.373,1.167 8.776,1.31 13.195,0.303c1.259,-0.287 0.725,-2.219 -0.533,-1.932Z" style="fill:#1e3933;fill-rule:nonzero;"/></g></g><g><g><path d="M38.12,143.014c2.505,-1.919 4.549,-4.258 5.809,-7.173c0.507,-1.173 -1.218,-2.194 -1.73,-1.012c-1.116,2.582 -2.859,4.746 -5.09,6.454c-1.011,0.775 -0.015,2.516 1.011,1.731Z" style="fill:#1e3933;fill-rule:nonzero;"/></g></g></g><g><g><path d="M44.788,18.441c19.339,-8.557 5.101,-22.42 -2.71,-3.182c0.867,-3.558 4.092,-14.578 -1.885,-15.252c-5.726,-0.335 -3.944,11.544 -3.656,14.583c-1.673,-3.784 -3.495,-16.092 -9.741,-12.656c-5.397,3.14 3.146,12.404 5.998,14.762c-2.769,-1.49 -11.427,-10.697 -14.466,-4.76c-2.418,4.719 8.615,7.449 12.134,7.863c-3.519,-0.414 -15.488,-1.043 -14.632,5.076c1.837,5.52 11.372,2.12 16.383,-0.458c-2.914,1.589 -11.993,7.489 -8.895,12.451c4.049,5.749 11.128,-5.857 12.335,-10.806c-0.974,3.596 -4.221,16.125 2.784,15.506c6.733,-0.598 3.23,-12.134 2.901,-15.609c7.103,19.478 26.192,8.28 3.444,-2.953c6.27,3.83 15.287,1.837 14.894,-2.289c-0.285,-3.761 -6.008,-5.629 -14.888,-2.276Z" style="fill:#f8b016;fill-rule:nonzero;"/></g><g><g><path d="M36.905,15.559c-7.561,0.329 -6.269,12.271 1.812,10.657c3.381,-0.674 5.163,-2.97 4.355,-6.503c-0.704,-3.082 -3.095,-4.453 -6.167,-4.154" style="fill:#1e3933;fill-rule:nonzero;"/></g><g><path d="M37.268,18.513c-3.401,0.147 -2.82,5.521 0.816,4.795c1.521,-0.304 2.322,-1.337 1.958,-2.927c-0.316,-1.386 -1.393,-2.002 -2.774,-1.868" style="fill:#fff;fill-rule:nonzero;"/></g></g></g><g><g><path d="M58.615,83.077c-0.002,4.144 9.162,5.278 15.043,0.874c-21.586,13.329 -1.526,22.674 3.707,2.614c0,3.49 -2.399,15.304 4.361,15.265c7.031,-0.044 2.617,-12.212 1.307,-15.7c1.669,4.813 9.814,15.7 13.301,9.594c2.617,-5.233 -6.978,-10.249 -10.029,-11.556c5.231,2.093 15.044,4.578 16.353,-1.091c0.274,-6.172 -11.582,-4.416 -15.046,-3.672c3.463,-0.744 14.191,-4.506 11.339,-8.974c-3.587,-5.623 -11.336,4.36 -13.954,6.105c2.617,-2.618 10.247,-12.647 4.578,-15.263c-6.542,-2.831 -7.194,9.594 -8.502,13.518c0,-3.052 0.654,-15.045 -5.015,-14.172c-5.887,1.234 -1.637,11.902 -0.437,15.361c-9.592,-18.414 -22.459,-3.27 -2.398,3.424c-9.159,-2.5 -14.68,-0.099 -14.608,3.673Z" style="fill:#f8b016;fill-rule:nonzero;"/></g><g><g><path d="M80.798,75.792c7.558,-0.386 7.398,11.624 -0.799,10.78c-3.43,-0.353 -5.42,-2.47 -4.949,-6.063c0.41,-3.135 2.661,-4.725 5.748,-4.717" style="fill:#1e3933;fill-rule:nonzero;"/></g><g><path d="M80.716,78.767c3.399,-0.175 3.329,5.229 -0.361,4.85c-1.542,-0.16 -2.438,-1.113 -2.226,-2.729c0.184,-1.41 1.198,-2.126 2.587,-2.121" style="fill:#fff;fill-rule:nonzero;"/></g></g></g><g><g><path d="M43.54,106.997c-0.622,-4.095 -9.852,-3.837 -15.003,1.402c19.333,-16.426 -1.907,-22.645 -4.059,-2.026c-0.526,-3.449 0.067,-15.49 -6.61,-14.434c-6.945,1.102 -0.749,12.465 1.071,15.717c-2.374,-4.507 -12.064,-14.043 -14.592,-7.48c-1.799,5.566 8.441,9.08 11.655,9.913c-5.487,-1.282 -15.562,-2.261 -16.002,3.54c0.657,6.144 12.115,2.624 15.427,1.365c-3.312,1.259 -13.35,6.59 -9.858,10.578c4.394,5.02 10.551,-6.018 12.876,-8.136c-2.193,2.981 -8.227,14.045 -2.228,15.778c6.894,1.814 5.668,-10.568 6.371,-14.645c0.459,3.017 1.619,14.972 7.092,13.256c5.634,-2.107 -0.174,-12.012 -1.88,-15.252c12.255,16.76 22.695,-0.148 1.854,-3.746c9.428,1.094 14.524,-2.11 13.886,-5.83Z" style="fill:#f8b016;fill-rule:nonzero;"/></g><g><g><path d="M22.707,117.54c-7.413,1.521 -9.064,-10.377 -0.834,-10.778c3.443,-0.167 5.731,1.627 5.806,5.25c0.067,3.16 -1.919,5.072 -4.972,5.528" style="fill:#1e3933;fill-rule:nonzero;"/></g><g><path d="M22.34,114.586c-3.335,0.683 -4.079,-4.669 -0.374,-4.851c1.549,-0.073 2.578,0.734 2.611,2.364c0.031,1.423 -0.863,2.283 -2.237,2.487" style="fill:#fff;fill-rule:nonzero;"/></g></g></g></g></svg>