<?xml version="1.0" encoding="UTF-8" standalone="no"?><!DOCTYPE svg PUBLIC "-//W3C//DTD SVG 1.1//EN" "http://www.w3.org/Graphics/SVG/1.1/DTD/svg11.dtd"><svg width="100%" height="100%" viewBox="0 0 111 153" version="1.1" xmlns="http://www.w3.org/2000/svg" xmlns:xlink="http://www.w3.org/1999/xlink" xml:space="preserve" xmlns:serif="http://www.serif.com/" style="fill-rule:evenodd;clip-rule:evenodd;stroke-linejoin:round;stroke-miterlimit:2;"><g><g><path d="M54.412,126.755c-11.261,10.75 -52.689,11.35 -54.26,-4.607c-2.34,-23.758 23.034,-10.748 28.666,-19.45c6.142,-9.215 -32.03,-9.426 -26.107,-27.131c5.602,-16.742 22.012,4.095 28.665,-3.584c9.216,-9.724 -28.665,-13.308 -20.475,-30.712c7.677,-16.381 24.57,8.702 26.106,-10.237c0.511,-8.702 -3.583,-18.428 2.559,-26.106c5.631,-6.654 15.868,-6.654 21.5,0.512c8.191,10.237 -8.701,34.296 11.774,26.618c8.701,-3.584 22.522,-7.168 19.964,8.702c-2.049,10.75 -19.964,13.308 -18.429,23.034c6.654,2.047 13.309,-5.119 20.987,-2.56c9.214,2.56 9.726,11.773 4.607,18.428c-5.119,7.166 -14.844,6.655 -20.475,12.797c-6.654,7.168 2.047,9.726 9.214,8.191c7.678,-1.023 16.38,-7.678 20.987,2.559c3.583,8.191 -3.072,16.381 -9.214,20.476c-10.238,7.166 -35.32,12.283 -46.069,3.07" style="fill:#4e9686;fill-rule:nonzero;"/></g><g><g><g><path d="M48.61,17.651c0.055,22.507 1.885,44.942 3.128,67.401c1.213,21.942 3.051,44.578 -0.033,66.425c-0.178,1.263 1.751,1.807 1.932,0.532c3.024,-21.426 1.319,-43.448 0.21,-64.972c-1.192,-23.128 -3.178,-46.213 -3.234,-69.387c-0.003,-1.291 -2.006,-1.291 -2.003,0.001Z" style="fill:#1e3933;fill-rule:nonzero;"/></g></g><g><g><path d="M23.472,47.271c9.826,2.203 18.016,10.217 28.532,9.395c9.717,-0.76 16.497,-10.513 25.414,-13.567c1.215,-0.416 0.693,-2.351 -0.532,-1.932c-8.382,2.871 -14.288,10.12 -22.644,12.989c-10.274,3.528 -20.582,-6.652 -30.238,-8.817c-1.258,-0.281 -1.792,1.65 -0.532,1.932Z" style="fill:#1e3933;fill-rule:nonzero;"/></g></g><g><g><path d="M19.06,80.833c9.798,4.39 19.298,11.414 30.401,11.739c11.809,0.346 19.664,-12.489 30.462,-15.532c1.241,-0.35 0.713,-2.283 -0.532,-1.932c-10.628,2.995 -17.611,14.043 -28.726,15.409c-10.596,1.302 -21.409,-7.299 -30.594,-11.414c-1.168,-0.523 -2.188,1.202 -1.011,1.73Z" style="fill:#1e3933;fill-rule:nonzero;"/></g></g><g><g><path d="M24.243,120.894c18.739,-10.775 43.397,-4.31 63.76,-5.149c1.287,-0.053 1.292,-2.056 0,-2.003c-20.783,0.856 -45.623,-5.587 -64.77,5.423c-1.119,0.643 -0.111,2.374 1.01,1.729Z" style="fill:#1e3933;fill-rule:nonzero;"/></g></g><g><g><path d="M50.04,27.516c-2.193,-1.894 -4.6,-3.536 -6.676,-5.564c-0.924,-0.903 -2.341,0.512 -1.416,1.416c2.076,2.029 4.482,3.671 6.676,5.564c0.972,0.839 2.396,-0.571 1.416,-1.416Z" style="fill:#1e3933;fill-rule:nonzero;"/></g></g><g><g><path d="M51.23,37.99c2.754,-1.173 4.938,-3.246 7.511,-4.729c1.119,-0.645 0.11,-2.376 -1.011,-1.729c-2.573,1.483 -4.757,3.556 -7.511,4.729c-1.185,0.504 -0.163,2.229 1.011,1.729Z" style="fill:#1e3933;fill-rule:nonzero;"/></g></g><g><g><path d="M36.703,50.757c-0.04,-2.283 -0.595,-4.464 -1.148,-6.666c-0.315,-1.252 -2.247,-0.721 -1.932,0.532c0.511,2.029 1.04,4.028 1.077,6.133c0.022,1.291 2.026,1.294 2.003,0.001Z" style="fill:#1e3933;fill-rule:nonzero;"/></g></g><g><g><path d="M43.061,54.223c-2.488,2.127 -5.516,3.412 -8.422,4.851c-1.158,0.573 -0.143,2.301 1.011,1.729c3.077,-1.523 6.194,-2.913 8.827,-5.164c0.984,-0.841 -0.44,-2.251 -1.416,-1.416Z" style="fill:#1e3933;fill-rule:nonzero;"/></g></g><g><g><path d="M64.244,49.645c0.298,-3.104 0.77,-6.192 1.634,-9.193c0.358,-1.244 -1.575,-1.771 -1.932,-0.532c-0.913,3.17 -1.39,6.446 -1.705,9.725c-0.124,1.285 1.88,1.273 2.003,0Z" style="fill:#1e3933;fill-rule:nonzero;"/></g></g><g><g><path d="M58.362,55.082c2.34,1.95 5.141,2.838 7.953,3.874c1.214,0.448 1.734,-1.489 0.532,-1.932c-2.458,-0.906 -5.02,-1.651 -7.069,-3.359c-0.984,-0.82 -2.41,0.589 -1.416,1.417Z" style="fill:#1e3933;fill-rule:nonzero;"/></g></g><g><g><path d="M28.48,84.566c-2.81,0.705 -5.645,1.452 -8.347,2.504c-1.19,0.463 -0.673,2.4 0.532,1.932c2.702,-1.051 5.537,-1.798 8.347,-2.503c1.253,-0.315 0.722,-2.247 -0.532,-1.933Z" style="fill:#1e3933;fill-rule:nonzero;"/></g></g><g><g><path d="M36.945,88.302c0.507,-3.144 0.334,-6.278 0.314,-9.447c-0.008,-1.291 -2.011,-1.292 -2.003,0c0.019,2.977 0.234,5.961 -0.243,8.915c-0.204,1.263 1.727,1.805 1.932,0.532Z" style="fill:#1e3933;fill-rule:nonzero;"/></g></g><g><g><path d="M45.008,90.944c-2.072,2.019 -4.602,3.544 -6.398,5.842c-0.786,1.005 0.621,2.433 1.416,1.416c1.796,-2.298 4.327,-3.823 6.398,-5.842c0.926,-0.902 -0.491,-2.317 -1.416,-1.416Z" style="fill:#1e3933;fill-rule:nonzero;"/></g></g><g><g><path d="M71.199,79.968c0.3,-2.887 1.053,-5.711 1.113,-8.623c0.027,-1.292 -1.977,-1.29 -2.003,0c-0.06,2.906 -0.813,5.739 -1.113,8.623c-0.134,1.284 1.871,1.271 2.003,0Z" style="fill:#1e3933;fill-rule:nonzero;"/></g></g><g><g><path d="M63.572,86.953c2.389,1.115 4.288,2.914 6.399,4.452c1.046,0.762 2.044,-0.977 1.011,-1.73c-2.112,-1.538 -4.006,-3.335 -6.399,-4.452c-1.163,-0.543 -2.181,1.184 -1.011,1.73Z" style="fill:#1e3933;fill-rule:nonzero;"/></g></g><g><g><path d="M53.536,75.466c2.16,-2.918 4.751,-5.592 7.708,-7.708c1.04,-0.745 0.042,-2.483 -1.011,-1.729c-3.256,2.33 -6.049,5.213 -8.427,8.427c-0.769,1.039 0.971,2.036 1.73,1.01Z" style="fill:#1e3933;fill-rule:nonzero;"/></g></g><g><g><path d="M31.478,115.548c-2.168,-1.569 -4.677,-2.513 -6.955,-3.896c-1.107,-0.672 -2.113,1.061 -1.011,1.73c2.278,1.382 4.787,2.327 6.955,3.895c1.048,0.759 2.047,-0.98 1.011,-1.729Z" style="fill:#1e3933;fill-rule:nonzero;"/></g></g><g><g><path d="M41.134,114.199c-1.083,2.979 -2.168,5.956 -3.338,8.903c-0.477,1.202 1.461,1.718 1.932,0.532c1.17,-2.946 2.255,-5.924 3.338,-8.903c0.442,-1.217 -1.494,-1.736 -1.932,-0.532Z" style="fill:#1e3933;fill-rule:nonzero;"/></g></g><g><g><path d="M76.845,115.526c1.479,1.998 2.704,4.08 3.516,6.438c0.419,1.214 2.354,0.692 1.932,-0.532c-0.869,-2.523 -2.132,-4.775 -3.718,-6.916c-0.76,-1.026 -2.5,-0.029 -1.73,1.01Z" style="fill:#1e3933;fill-rule:nonzero;"/></g></g><g><g><path d="M69.773,114.174c0.801,-2.757 1.217,-5.892 3.081,-8.182c0.808,-0.992 -0.601,-2.418 -1.416,-1.416c-2.129,2.615 -2.679,5.911 -3.596,9.066c-0.362,1.243 1.571,1.77 1.931,0.532Z" style="fill:#1e3933;fill-rule:nonzero;"/></g></g><g><g><path d="M59.495,114.731c0.768,2.404 1.127,4.947 2.327,7.194c0.608,1.14 2.337,0.128 1.729,-1.011c-1.11,-2.079 -1.414,-4.49 -2.125,-6.716c-0.391,-1.225 -2.325,-0.701 -1.931,0.533Z" style="fill:#1e3933;fill-rule:nonzero;"/></g></g><g><g><path d="M53.494,104.597c-2.55,-0.586 -5.032,-1.399 -7.512,-2.226c-1.229,-0.41 -1.751,1.525 -0.532,1.932c2.48,0.827 4.961,1.64 7.512,2.226c1.257,0.288 1.791,-1.643 0.532,-1.932Z" style="fill:#1e3933;fill-rule:nonzero;"/></g></g></g></g></svg>