<?xml version="1.0" encoding="UTF-8" standalone="no"?><!DOCTYPE svg PUBLIC "-//W3C//DTD SVG 1.1//EN" "http://www.w3.org/Graphics/SVG/1.1/DTD/svg11.dtd"><svg width="100%" height="100%" viewBox="0 0 1566 1566" version="1.1" xmlns="http://www.w3.org/2000/svg" xmlns:xlink="http://www.w3.org/1999/xlink" xml:space="preserve" xmlns:serif="http://www.serif.com/" style="fill-rule:evenodd;clip-rule:evenodd;stroke-linejoin:round;stroke-miterlimit:2;"><g><g><path d="M560.043,1103.814l-281.052,281.052c-88.438,88.438 -179.538,145.49 -239.572,177.469c-23.308,12.414 -48.578,-12.917 -36.133,-36.194c32.177,-60.14 89.427,-151.438 177.484,-239.496l281.052,-281.052l98.221,98.221Z" style="fill:#d6d6d6;fill-rule:nonzero;"/><path d="M495.827,1168.032l-216.833,216.833c-88.441,88.441 -179.539,145.486 -239.572,177.471c-23.307,12.416 -48.582,-12.921 -36.136,-36.197c3.768,-7.047 7.881,-14.514 12.354,-22.357c-2.076,16.843 16.146,31.525 33.141,22.48c50.704,-27.006 127.656,-75.206 202.356,-149.906l182.167,-182.167c-52.111,-51.477 -76.419,-83.658 -76.419,-83.658l40.72,-40.72l98.222,98.221Z" style="fill:#b7bec4;fill-rule:nonzero;"/><path d="M1024.863,984.19c72.238,132.533 88.891,250.11 31.73,307.271l-73.331,73.331c-92.34,92.34 -342.348,-7.949 -558.408,-224.01c-216.06,-216.061 -316.35,-466.068 -224.01,-558.408l73.331,-73.331c56.599,-56.599 172.424,-40.827 303.351,29.61l447.337,445.537Z" style="fill:#e53c3c;fill-rule:nonzero;"/><path d="M1056.593,1291.461l-73.329,73.329c-92.339,92.339 -342.351,-7.95 -558.409,-224.009c-184.755,-184.755 -284.853,-394.334 -252.248,-508.923c-10.079,111.028 81.892,289.686 240.897,448.691c202.103,202.103 435.954,295.913 522.327,209.54l68.596,-68.596c53.408,-53.408 37.928,-163.187 -29.434,-286.983l49.877,49.677c72.225,132.537 88.884,250.113 31.723,307.274Z" style="fill:#c43939;fill-rule:nonzero;"/><path d="M1340.116,619.203c0,0 -255.983,305.716 -347.18,396.914c-22.436,22.437 -54.042,33.185 -85.491,28.973c-49.976,-6.693 -129.366,-39.598 -239.844,-150.075c-111.43,-111.43 -143.943,-191.234 -150.242,-241.129c-3.917,-31.024 7.021,-62.086 29.133,-84.198c108.055,-108.055 398.388,-348.741 398.388,-348.741l395.236,398.256Z" style="fill:#c43939;fill-rule:nonzero;"/><path d="M992.938,1016.12c-22.434,22.434 -54.043,33.18 -85.492,28.967c-49.976,-6.687 -129.364,-39.598 -239.84,-150.074c-111.434,-111.433 -143.947,-191.235 -150.243,-241.127c-1.011,-8.027 -1.034,-16.061 -0.115,-23.935c41.965,102.963 139.489,205.665 220.6,269.297c75.535,59.252 184.089,49.394 247.767,-22.449c50.091,-56.525 154.34,-174.821 199.331,-230.488c-48.559,-30.177 -273.74,-210.934 -305.908,-372.252c39.361,-32.069 65.839,-53.109 65.839,-53.109l395.238,398.255c-0.001,0 -255.979,305.717 -347.177,396.915Z" style="fill:#a83131;fill-rule:nonzero;"/><path d="M898.398,80.712c-69.223,69.223 5.959,256.638 167.924,418.602c161.965,161.964 349.38,237.147 418.602,167.924l54.968,-54.968c69.223,-69.223 -5.959,-256.638 -167.924,-418.602c-161.965,-161.964 -349.38,-237.147 -418.602,-167.924l-54.968,54.968Z" style="fill:#e53c3c;fill-rule:nonzero;"/><path d="M1539.897,612.266l-54.97,54.97c-69.224,69.224 -256.644,-5.959 -418.606,-167.92c-134.388,-134.388 -209.027,-286.308 -190.99,-373.677c11.129,73.674 51.209,140.608 96.429,200.273c93.232,123.015 241.063,248.755 370.413,302.701c40.045,16.701 86.251,7.215 116.674,-23.719c17.006,-17.292 30.092,-29.975 48.623,-53.578c0,0 64.371,-136.713 -240.846,-448.608c35.347,26.034 70.917,56.533 105.345,90.961c161.961,161.96 237.144,349.381 167.928,418.597Z" style="fill:#c43939;fill-rule:nonzero;"/><g><path d="M1194.751,108.763c4.136,-4.136 2.83,-11.668 -2.703,-15.723c-34.813,-25.512 -75.697,-41.731 -115.758,-44.902c-44.121,-3.492 -86.896,9.084 -117.517,35.671c-11.346,9.851 -21.339,26.174 -12.333,41.168c8.315,13.843 28.108,16.379 40.631,10.004c12.523,-6.375 20.205,-18.72 29.551,-28.965c37.496,-41.106 110.559,-30.918 166.094,3.436c4.151,2.568 9.074,2.272 12.035,-0.689Z" style="fill:#fff;fill-rule:nonzero;"/></g><g><path d="M516.433,565.399c2.952,-4.82 1.45,-11.118 -3.352,-14.099c-31.01,-19.248 -65.662,-31.373 -99.718,-34.069c-44.121,-3.492 -86.896,9.084 -117.517,35.671c-11.346,9.851 -21.339,26.174 -12.333,41.168c8.315,13.843 28.108,16.379 40.631,10.004c12.523,-6.375 20.205,-18.72 29.551,-28.965c33.839,-37.097 96.646,-32.417 149.393,-5.901c4.761,2.393 10.561,0.736 13.345,-3.809Z" style="fill:#fff;fill-rule:nonzero;"/></g><g><path d="M835.298,368.219c6.531,2.657 8.095,11.196 2.928,15.995c-71.892,66.773 -143.785,133.547 -215.677,200.333c-6.353,5.897 -15.476,12.166 -22.872,7.637c-5.337,-3.265 -6.418,-10.954 -4.086,-16.753c2.326,-5.806 7.181,-10.152 11.879,-14.277c72.537,-63.777 145.081,-127.549 217.631,-191.326c2.744,-2.412 6.615,-3.065 9.999,-1.689c0.066,0.026 0.132,0.053 0.198,0.08Z" style="fill:#fff;fill-rule:nonzero;"/></g><g><path d="M180.596,1319.332c49.04,-50.169 98.082,-100.337 147.129,-150.508c2.554,-2.613 6.366,-3.558 9.844,-2.441l0.203,0.065c6.713,2.156 8.917,10.553 4.128,15.728c-47.673,51.514 -95.346,103.027 -143.019,154.546c-4.746,5.128 -12.756,5.424 -17.866,0.659c-5.183,-4.832 -5.372,-12.982 -0.419,-18.049Z" style="fill:#fff;fill-rule:nonzero;"/></g></g></g></svg>